<?xml version="1.0" encoding="UTF-8" standalone="no"?>
<svg width="600px" height="600px" viewBox="0 0 600 600" version="1.1" xmlns="http://www.w3.org/2000/svg" xmlns:xlink="http://www.w3.org/1999/xlink" xmlns:sketch="http://www.bohemiancoding.com/sketch/ns">
    <title>bb-logo</title>
    <description>Created with Sketch (http://www.bohemiancoding.com/sketch)</description>
    <defs></defs>
    <g id="Page-1" stroke="none" stroke-width="1" fill="none" fill-rule="evenodd" sketch:type="MSPage">
        <g id="Oval-2-+-Oval-1-+-Oval-1" sketch:type="MSLayerGroup">
            <circle id="Oval-2" fill="#D8D8D8" sketch:type="MSShapeGroup" cx="300" cy="300" r="300"></circle>
            <path d="M115.384615,63.5384615 L115.384615,302.203796 C115.384615,402.012304 198.039733,482.923077 300,482.923077 C401.960267,482.923077 484.615385,402.012304 484.615385,302.203796 C484.615385,202.395289 401.960267,121.484515 300,121.484515 L269.690011,121.484515 L269.690011,198.897602 C279.716432,195.915454 290.355752,194.311688 301.377727,194.311688 C361.48863,194.311688 410.21814,242.012816 410.21814,300.855145 C410.21814,359.697474 361.48863,407.398601 301.377727,407.398601 C241.726737,407.398601 193.283648,360.424613 192.545854,302.203796 L192.538423,118.484515 L115.384615,63.5384615 Z" id="Oval-1" fill="#063442" sketch:type="MSShapeGroup"></path>
            <circle id="Oval-1" fill="#DC322F" sketch:type="MSShapeGroup" cx="300" cy="300" r="38.4615385"></circle>
        </g>
    </g>
</svg>